PathFileType	4	(X/Y/Z)	s04c0302.trc
DataRate	CameraRate	NumFrames	NumMarkers	Units	OrigDataRate	OrigDataStartFrame	OrigNumFrames
200	200	5	50	mm	200	250	2000
Frame#	Time	racr			lacr			c7			jug			rlel			rdr			llel			ldr			s2			lic			ric			lasi			rasi			rpsi			lpsi			rgt			lgt			rth1			rth2			rth3			rth4			rlfc			rmfc			rsh1			rsh2			rsh3			rsh4			rlmal			rmmal			rcal			rtoe			rmt5			lth1			lth2			lth4			lth3			llfc			lmfc			lsh1			lsh2			lsh3			lsh4			llmal			lmmal			lcal			ltoe			lmt5			SBIKE			LBIKE			RBIKE			
		X1	Y1	Z1	X2	Y2	Z2	X3	Y3	Z3	X4	Y4	Z4	X5	Y5	Z5	X6	Y6	Z6	X7	Y7	Z7	X8	Y8	Z8	X9	Y9	Z9	X10	Y10	Z10	X11	Y11	Z11	X12	Y12	Z12	X13	Y13	Z13	X14	Y14	Z14	X15	Y15	Z15	X16	Y16	Z16	X17	Y17	Z17	X18	Y18	Z18	X19	Y19	Z19	X20	Y20	Z20	X21	Y21	Z21	X22	Y22	Z22	X23	Y23	Z23	X24	Y24	Z24	X25	Y25	Z25	X26	Y26	Z26	X27	Y27	Z27	X28	Y28	Z28	X29	Y29	Z29	X30	Y30	Z30	X31	Y31	Z31	X32	Y32	Z32	X33	Y33	Z33	X34	Y34	Z34	X35	Y35	Z35	X36	Y36	Z36	X37	Y37	Z37	X38	Y38	Z38	X39	Y39	Z39	X40	Y40	Z40	X41	Y41	Z41	X42	Y42	Z42	X43	Y43	Z43	X44	Y44	Z44	X45	Y45	Z45	X46	Y46	Z46	X47	Y47	Z47	X48	Y48	Z48	X49	Y49	Z49	X50	Y50	Z50	
250	1.2500	529.418282	1425.572789	-151.413991	542.851405	1417.978379	-415.056865	507.209496	1460.522127	-299.367091	515.027363	1312.951349	-289.521302	503.021066	1118.567019	-33.305623	703.008220	914.560545	-114.542422	517.232569	1140.208368	-541.324818	698.147941	910.666142	-478.458627	-41.536895	1186.992754	-289.182336	120.189496	1176.162154	-439.899627	122.437462	1166.063687	-126.991237	0.000000	0.000000	-0.000000	154.761990	1105.312719	-170.103970	-3.438551	1222.894915	-244.122880	-7.380755	1229.779003	-319.343958	61.146067	1111.780772	-110.170939	70.083045	1123.258871	-485.553362	136.043324	961.503080	-94.592228	191.126249	893.405193	-106.960185	207.635239	809.547671	-114.428192	219.577811	909.283101	-125.957244	254.243526	674.279494	-143.248627	222.598427	658.205555	-252.857054	186.844406	567.529487	-114.942813	165.039712	479.225238	-127.294978	102.694382	419.450521	-129.247647	191.812243	467.560124	-153.293927	39.179699	280.793603	-134.025907	57.808198	283.670085	-220.666194	-36.798779	259.692228	-172.761539	254.639333	187.862840	-162.166374	184.390185	177.840704	-106.930965	127.171047	1068.301232	-491.842377	212.518052	1057.790630	-498.513122	227.035354	1088.152772	-482.710987	282.967423	1004.345583	-511.837547	420.939528	919.267046	-495.370353	459.691426	902.651989	-387.869694	379.978911	811.222822	-509.988624	356.142625	731.112182	-482.601741	292.802225	669.333555	-473.236258	381.393239	722.885434	-453.967485	211.756632	550.522857	-451.467516	212.046604	557.557132	-363.465193	130.349514	535.385333	-404.317076	428.058086	497.585607	-422.303970	352.661424	464.729143	-480.298842	-185.419904	931.560485	-287.123768	-17.206634	79.600191	-485.848136	-17.531578	79.364106	-84.815749	
251	1.2550	529.429338	1425.523392	-151.456473	542.813888	1417.943725	-415.028481	507.186248	1460.527064	-299.335751	515.060463	1312.925869	-289.473301	503.058591	1118.579521	-33.265363	703.018264	914.542853	-114.578260	517.279670	1140.185218	-541.321537	698.151252	910.627069	-478.441164	-41.568603	1186.999459	-289.164785	120.176988	1176.183468	-439.875909	122.416578	1166.051369	-127.017705	0.000000	0.000000	-0.000000	154.734808	1105.292613	-170.092239	-3.974585	1223.604506	-243.785903	-7.429989	1229.782452	-319.305203	61.113816	1111.790261	-110.164287	70.042396	1123.244109	-485.552693	136.014940	961.494567	-94.594434	191.125792	893.405656	-106.952948	207.646714	809.566678	-114.417222	219.557617	909.302068	-125.949221	254.250278	674.281527	-143.260847	222.586862	658.230277	-252.865974	186.856203	567.532305	-114.951177	165.055904	479.204223	-127.296351	102.683360	419.492957	-129.214500	191.809595	467.556640	-153.303420	39.208112	280.789079	-134.028718	57.815597	283.659608	-220.664639	-36.779509	259.680687	-172.750536	254.665045	187.861609	-162.167119	184.424973	177.839656	-106.945362	127.119631	1068.303081	-491.841062	212.463898	1057.812016	-498.547834	226.986526	1088.161270	-482.732677	282.912195	1004.353054	-511.867613	420.881619	919.273596	-495.405397	459.650167	902.657167	-387.879563	379.938470	811.224728	-510.005863	356.113029	731.110995	-482.631077	292.750322	669.346952	-473.261342	381.359328	722.903745	-453.990206	211.705540	550.534494	-451.482708	212.029105	557.566492	-363.472738	130.322385	535.385378	-404.318258	428.022549	497.602890	-422.303241	352.644985	464.740024	-480.295387	-185.429002	931.548719	-287.127249	-17.205491	79.589433	-485.853308	-17.518791	79.349007	-84.806040	
252	1.2600	529.419494	1425.545080	-151.413938	542.766384	1417.920539	-415.009695	507.153394	1460.523314	-299.296683	515.058018	1312.923086	-289.425925	503.120500	1118.565261	-33.236401	703.037042	914.517164	-114.545839	517.296547	1140.172426	-541.328766	698.157443	910.612673	-478.436025	-41.597665	1186.987708	-289.148988	120.139526	1176.168253	-439.836123	122.383052	1166.038635	-126.993267	0.000000	0.000000	-0.000000	154.705736	1105.270347	-170.068531	-3.546805	1222.926664	-244.067367	-7.456621	1229.785152	-319.304145	61.094116	1111.783641	-110.148141	70.003842	1123.224892	-485.565706	135.977017	961.489718	-94.582765	191.105780	893.402328	-106.946242	207.658701	809.581804	-114.399719	219.530012	909.311184	-125.952166	254.249078	674.291512	-143.258197	222.568172	658.256381	-252.858274	186.874141	567.520053	-114.954545	165.108017	479.232553	-127.307007	102.741333	419.446834	-129.226752	191.859944	467.562749	-153.305299	39.228509	280.768559	-134.009094	57.834951	283.651247	-220.653207	-36.748504	259.674224	-172.743246	254.687163	187.844121	-162.158105	184.456978	177.829864	-106.931416	127.082341	1068.283657	-491.833071	212.427251	1057.797818	-498.550650	226.928712	1088.165729	-482.755207	282.876366	1004.363298	-511.891086	420.846855	919.282252	-495.428971	459.608397	902.664783	-387.917023	379.907774	811.216486	-510.019683	356.080424	731.120782	-482.647738	292.719608	669.349151	-473.274874	381.320868	722.893208	-454.002239	211.698375	550.530215	-451.474102	211.992657	557.579097	-363.474881	130.298308	535.390679	-404.314409	428.011377	497.623820	-422.312747	352.632931	464.738053	-480.280744	-185.427943	931.552486	-287.124003	-17.210925	79.591637	-485.843131	-17.518960	79.363773	-84.820629	
253	1.2650	529.419493	1425.545079	-151.413954	542.729594	1417.906039	-415.016839	507.121013	1460.518727	-299.274655	515.057496	1312.909389	-289.418643	503.175295	1118.595753	-33.201832	703.047031	914.499841	-114.581483	517.340232	1140.141609	-541.296427	698.161866	910.593661	-478.424542	-41.632763	1186.977736	-289.118777	120.106781	1176.175113	-439.806971	122.382243	1166.018747	-126.983450	0.000000	0.000000	-0.000000	154.677307	1105.247903	-170.058167	-4.026659	1223.605156	-243.755606	-7.492977	1229.790011	-319.278553	61.061355	1111.771551	-110.139360	69.973602	1123.199164	-485.572648	135.958426	961.472304	-94.566004	191.095272	893.402893	-106.954183	207.651454	809.590509	-114.383232	219.524823	909.313458	-125.969203	254.262766	674.300890	-143.273400	222.568187	658.256381	-252.858290	186.895461	567.517955	-114.956201	165.107249	479.187913	-127.301906	102.766874	419.442377	-129.242792	191.873525	467.568639	-153.334894	39.270517	280.774404	-134.012478	57.866118	283.644625	-220.650866	-36.707631	259.682824	-172.741381	254.724917	187.815297	-162.168379	184.482195	177.806253	-106.935213	127.035689	1068.282533	-491.844040	212.378929	1057.799478	-498.563439	226.897154	1088.149920	-482.759862	282.830133	1004.364312	-511.911134	420.816639	919.288973	-495.464898	459.589259	902.673016	-387.976809	379.889823	811.219682	-510.036232	356.042544	731.134180	-482.659070	292.685840	669.358329	-473.282332	381.296263	722.903767	-454.025040	211.668540	550.540537	-451.478151	211.951101	557.592212	-363.484574	130.263174	535.409055	-404.318622	427.983634	497.641908	-422.306550	352.603680	464.754375	-480.281134	-185.422941	931.540891	-287.114713	-17.212351	79.608650	-485.842584	-17.521623	79.367197	-84.817329	
254	1.2700	529.377708	1425.559103	-151.478841	542.699897	1417.898422	-415.011338	507.042938	1460.565476	-299.229367	515.074039	1312.895034	-289.387613	503.276053	1118.600211	-33.188001	703.040626	914.493114	-114.568821	517.368956	1140.135453	-541.291272	698.167890	910.571271	-478.391933	-41.677705	1186.983928	-289.112186	120.083996	1176.174312	-439.793919	122.334504	1166.004016	-126.953122	0.000000	0.000000	-0.000000	154.649362	1105.225546	-170.041269	-3.579419	1222.903455	-244.050288	-7.523687	1229.786182	-319.272768	61.035444	1111.760551	-110.140384	69.928040	1123.191611	-485.589762	135.945743	961.456958	-94.545126	191.091826	893.411440	-106.944905	207.676761	809.582241	-114.335200	219.503089	909.315828	-125.960896	254.291582	674.301330	-143.272480	222.614554	658.223020	-252.851842	186.944301	567.525731	-114.954409	165.145512	479.196482	-127.316077	102.808272	419.450734	-129.229444	191.892145	467.571243	-153.315924	39.291732	280.774091	-134.013071	57.913941	283.643386	-220.645427	-36.671924	259.687895	-172.747865	254.735569	187.817262	-162.166400	184.499359	177.801698	-106.942661	126.994232	1068.260825	-491.860750	212.336793	1057.804539	-498.568396	226.852551	1088.154087	-482.767695	282.788184	1004.371390	-511.934016	420.782407	919.300277	-495.500462	459.559538	902.689453	-387.998225	379.854025	811.231958	-510.072099	356.017699	731.149101	-482.679724	292.664192	669.363923	-473.302132	381.263382	722.929301	-454.055369	211.638387	550.563729	-451.482789	211.930514	557.609810	-363.510458	130.254096	535.418903	-404.312440	427.956935	497.652241	-422.305225	352.574420	464.776016	-480.292221	-185.433687	931.549930	-287.141660	-17.212089	79.595124	-485.836823	-17.546269	79.372619	-84.820977	
